# xmcd
#
# Track frame offsets:
#	150
#	19097
#	32231
#	51223
#	62003
#	75541
#	102565
#	117980
#	133415
#	145237
#
# Disc length: 2206 seconds
#
# Revision: 1
# Processed by: cddbd v1.5.2PL0 Copyright (c) Steve Scherf et al.
# Submitted via: audiograbber 1.83.01
#
DISCID=8f089c0a
DTITLE=Waylon Jennings - I've Always Been Crazy
DYEAR=1978
DGENRE=Country
TTITLE0=I've always Been Crazy
TTITLE1=Don't You Think This Outlaw Bit's Done Got Out Of Hand
TTITLE2=Billy
TTITLE3=A Long Time Ago
TTITLE4=As The 'Billy World Turns
TTITLE5=Buddy Holly Medley
TTITLE6=I Walk The Line
TTITLE7=Tonight The Bottle Let Me Down
TTITLE8=Girl I Can Tell
TTITLE9=Whistlers and Jugglers
EXTD=
EXTT0=
EXTT1=
EXTT2=
EXTT3=
EXTT4=
EXTT5=
EXTT6=
EXTT7=
EXTT8=
EXTT9=
PLAYORDER=
